<svg width="28" height="28" viewBox="0 0 28 28" fill="none" xmlns="http://www.w3.org/2000/svg">
<rect width="28" height="28" rx="14" fill="#181D2B"/>
<g clip-path="url(#clip0_614_23954)">
<path d="M14.55 21V15.072H16.617L16.916 12.758H14.55V11.289C14.55 10.9163 14.6237 10.6433 14.771 10.47C14.953 10.262 15.2737 10.158 15.733 10.158H17.007V8.091C16.4957 8.03033 15.8803 8 15.161 8C14.5457 8 14.0062 8.11917 13.5425 8.3575C13.0788 8.59583 12.7213 8.94033 12.47 9.391C12.21 9.85033 12.08 10.405 12.08 11.055V12.758H10V15.072H12.08V21H14.55Z" fill="white"/>
</g>
<defs>
<clipPath id="clip0_614_23954">
<rect width="8.36" height="13" fill="white" transform="matrix(1 0 0 -1 9.99951 21)"/>
</clipPath>
</defs>
</svg>
