<svg width="28" height="28" viewBox="0 0 28 28" fill="none" xmlns="http://www.w3.org/2000/svg">
<rect width="28" height="28" rx="14" fill="#181D2B"/>
<g clip-path="url(#clip0_614_23966)">
<path d="M11.215 13.9999C11.215 13.5699 11.32 13.1749 11.53 12.8149C11.74 12.4549 12.025 12.1699 12.385 11.9599C12.745 11.7499 13.1375 11.6449 13.5625 11.6449C13.9875 11.6449 14.3825 11.7499 14.7475 11.9599C15.1125 12.1699 15.4 12.4549 15.61 12.8149C15.82 13.1749 15.925 13.5699 15.925 13.9999C15.925 14.4299 15.82 14.8249 15.61 15.1849C15.4 15.5449 15.1125 15.8299 14.7475 16.0399C14.3825 16.2499 13.9875 16.3549 13.5625 16.3549C13.1375 16.3549 12.745 16.2499 12.385 16.0399C12.025 15.8299 11.74 15.5449 11.53 15.1849C11.32 14.8249 11.215 14.4299 11.215 13.9999ZM9.93999 13.9999C9.93999 14.6599 10.1025 15.2674 10.4275 15.8224C10.7525 16.3774 11.1925 16.8174 11.7475 17.1424C12.3025 17.4674 12.9075 17.6299 13.5625 17.6299C14.2175 17.6299 14.8225 17.4674 15.3775 17.1424C15.9325 16.8174 16.3725 16.3774 16.6975 15.8224C17.0225 15.2674 17.185 14.6599 17.185 13.9999C17.185 13.3399 17.0225 12.7324 16.6975 12.1774C16.3725 11.6224 15.9325 11.1824 15.3775 10.8574C14.8225 10.5324 14.2175 10.3699 13.5625 10.3699C12.9075 10.3699 12.3025 10.5324 11.7475 10.8574C11.1925 11.1824 10.7525 11.6224 10.4275 12.1774C10.1025 12.7324 9.93999 13.3399 9.93999 13.9999ZM16.495 10.2199C16.495 10.3999 16.54 10.5574 16.63 10.6924C16.72 10.8274 16.845 10.9349 17.005 11.0149C17.175 11.0749 17.34 11.0899 17.5 11.0599C17.66 11.0299 17.805 10.9499 17.935 10.8199C18.045 10.7299 18.125 10.5849 18.175 10.3849C18.205 10.2149 18.1875 10.0549 18.1225 9.90494C18.0575 9.75494 17.95 9.62494 17.8 9.51494C17.67 9.42494 17.515 9.37994 17.335 9.37994C17.115 9.37994 16.92 9.45994 16.75 9.61994C16.58 9.77994 16.495 9.97994 16.495 10.2199ZM10.705 19.7599C10.135 19.7199 9.69999 19.6349 9.39999 19.5049C9.09999 19.3949 8.82999 19.2199 8.58999 18.9799C8.35999 18.7699 8.17999 18.4999 8.04999 18.1699C7.90999 17.7799 7.82999 17.3399 7.80999 16.8499V16.6999C7.77999 16.0699 7.76499 15.1699 7.76499 13.9999C7.76499 12.8299 7.77999 11.9299 7.80999 11.2999V11.1499C7.82999 10.6599 7.90999 10.2199 8.04999 9.82994C8.17999 9.49994 8.35749 9.22494 8.58249 9.00494C8.80749 8.78494 9.07999 8.61494 9.39999 8.49494C9.73999 8.34494 10.175 8.25994 10.705 8.23994C11.065 8.22994 11.4 8.21994 11.71 8.20994H15.415C15.725 8.21994 16.06 8.22994 16.42 8.23994C16.99 8.27994 17.4275 8.35994 17.7325 8.47994C18.0375 8.59994 18.31 8.77994 18.55 9.01994C18.77 9.23994 18.945 9.50994 19.075 9.82994C19.215 10.2199 19.295 10.6599 19.315 11.1499V11.2999C19.345 11.9299 19.36 12.8299 19.36 13.9999C19.36 15.1699 19.345 16.0699 19.315 16.6999V16.8499C19.295 17.3399 19.215 17.7799 19.075 18.1699C18.945 18.4899 18.77 18.7599 18.55 18.9799C18.29 19.2199 18.015 19.3949 17.725 19.5049C17.425 19.6349 16.99 19.7199 16.42 19.7599C16.06 19.7699 15.725 19.7799 15.415 19.7899H11.71C11.4 19.7799 11.065 19.7699 10.705 19.7599ZM10.645 6.97994C9.98499 7.00994 9.41749 7.11744 8.94249 7.30244C8.46749 7.48744 8.04749 7.75994 7.68249 8.11994C7.31749 8.47994 7.04499 8.89494 6.86499 9.36494C6.68499 9.80494 6.57499 10.3799 6.53499 11.0899V11.2249C6.50499 11.8749 6.48999 12.7999 6.48999 13.9999C6.48999 15.1999 6.50499 16.1249 6.53499 16.7749V16.9099C6.57499 17.6199 6.68499 18.1949 6.86499 18.6349C7.04499 19.1049 7.31749 19.5199 7.68249 19.8799C8.04749 20.2399 8.46749 20.5124 8.94249 20.6974C9.41749 20.8824 9.98499 20.9899 10.645 21.0199C11.015 21.0399 11.36 21.0549 11.68 21.0649H13.57H15.46C15.78 21.0549 16.12 21.0399 16.48 21.0199C17.14 20.9899 17.7075 20.8824 18.1825 20.6974C18.6575 20.5124 19.0775 20.2399 19.4425 19.8799C19.8075 19.5199 20.0825 19.1024 20.2675 18.6274C20.4525 18.1524 20.56 17.5799 20.59 16.9099V16.7749C20.62 16.1249 20.635 15.1999 20.635 13.9999C20.635 12.7999 20.62 11.8749 20.59 11.2249V11.0899C20.56 10.4199 20.4525 9.84744 20.2675 9.37244C20.0825 8.89744 19.8075 8.47994 19.4425 8.11994C19.0775 7.75994 18.6575 7.48744 18.1825 7.30244C17.7075 7.11744 17.14 7.00994 16.48 6.97994C16.12 6.95994 15.78 6.94494 15.46 6.93494H13.57H11.68C11.36 6.94494 11.015 6.95994 10.645 6.97994Z" fill="white"/>
</g>
<defs>
<clipPath id="clip0_614_23966">
<rect width="15.02" height="15" fill="white" transform="matrix(1 0 0 -1 6.47998 21.5)"/>
</clipPath>
</defs>
</svg>
