<svg width="28" height="28" viewBox="0 0 28 28" fill="none" xmlns="http://www.w3.org/2000/svg">
<rect width="28" height="28" rx="14" fill="#181D2B"/>
<g clip-path="url(#clip0_614_23972)">
<path d="M7.48999 9.51491C7.48999 9.12491 7.62866 8.80208 7.90599 8.54641C8.18332 8.29075 8.54299 8.16291 8.98499 8.16291C9.40966 8.16291 9.76066 8.29075 10.038 8.54641C10.3153 8.80208 10.454 9.13791 10.454 9.55392C10.454 9.91791 10.3197 10.2321 10.051 10.4964C9.78232 10.7607 9.41832 10.8929 8.95899 10.8929H8.94599C8.52132 10.8929 8.17249 10.7607 7.89949 10.4964C7.62649 10.2321 7.48999 9.90491 7.48999 9.51491ZM7.64599 19.8369V11.9589H10.272V19.8369H7.64599ZM11.728 19.8369H14.354V15.4429C14.354 15.1482 14.3843 14.9359 14.445 14.8059C14.5577 14.5459 14.7267 14.3162 14.952 14.1169C15.1773 13.9349 15.459 13.8439 15.797 13.8439C16.681 13.8439 17.123 14.4376 17.123 15.6249V19.8369H19.749V15.3129C19.749 14.1602 19.4738 13.2827 18.9235 12.6804C18.3732 12.0781 17.643 11.7769 16.733 11.7769C15.719 11.7769 14.926 12.2102 14.354 13.0769V13.1029H14.341L14.354 13.0769V11.9589H11.728C11.7453 12.2882 11.754 13.0682 11.754 14.2989C11.754 14.9662 11.7497 16.2792 11.741 18.2379L11.728 19.8369Z" fill="white"/>
</g>
<defs>
<clipPath id="clip0_614_23972">
<rect width="13.02" height="13" fill="white" transform="matrix(1 0 0 -1 7.47998 20.5)"/>
</clipPath>
</defs>
</svg>
