<svg width="28" height="28" viewBox="0 0 28 28" fill="none" xmlns="http://www.w3.org/2000/svg">
<rect width="28" height="28" rx="14" fill="#181D2B"/>
<g clip-path="url(#clip0_614_23990)">
<path d="M7.63451 13.1162C11.4738 11.4349 14.0955 10.3039 15.4995 9.72324C16.7735 9.19457 17.7268 8.8089 18.3595 8.56624C19.0182 8.30624 19.5078 8.12857 19.8285 8.03324C20.1145 7.94657 20.3485 7.8989 20.5305 7.89024C20.6085 7.89024 20.6908 7.8989 20.7775 7.91624C20.8902 7.94224 20.9812 7.98557 21.0505 8.04624C21.1632 8.1329 21.2282 8.25424 21.2455 8.41024C21.2715 8.6269 21.2802 8.80457 21.2715 8.94324C21.1762 9.89657 20.9508 11.4782 20.5955 13.6882C20.3008 15.4736 20.0148 17.1246 19.7375 18.6412C19.5642 19.5166 19.2565 19.9802 18.8145 20.0322C18.5372 20.0582 18.2512 19.9976 17.9565 19.8502C17.7658 19.7636 17.4885 19.5902 17.1245 19.3302C16.9338 19.1916 16.7865 19.0876 16.6825 19.0182C16.2838 18.7582 15.7768 18.4181 15.1615 17.9977C14.5462 17.5774 14.0478 17.2416 13.6665 16.9902C13.3025 16.7476 13.0858 16.5222 13.0165 16.3142C12.9472 16.1322 12.9775 15.9372 13.1075 15.7292C13.1942 15.6079 13.3718 15.4172 13.6405 15.1572L13.9525 14.8452L14.4205 14.4032C16.5525 12.4272 17.6358 11.3612 17.6705 11.2052C17.6792 11.1879 17.6813 11.1511 17.677 11.0947C17.6727 11.0384 17.6532 10.9972 17.6185 10.9712C17.5578 10.9192 17.4625 10.9084 17.3325 10.9387C17.2025 10.9691 15.3045 12.2236 11.6385 14.7022C11.1012 15.0836 10.6158 15.2656 10.1825 15.2482C9.76651 15.2396 9.06451 15.0749 8.07651 14.7542L7.82951 14.6762C7.37884 14.5376 7.07984 14.4249 6.93251 14.3382C6.70718 14.2082 6.60318 14.0479 6.62051 13.8572C6.66384 13.6146 7.00184 13.3676 7.63451 13.1162Z" fill="white"/>
</g>
<defs>
<clipPath id="clip0_614_23990">
<rect width="14.73" height="13" fill="white" transform="matrix(1 0 0 -1 6.62012 20.5)"/>
</clipPath>
</defs>
</svg>
