<svg width="28" height="28" viewBox="0 0 28 28" fill="none" xmlns="http://www.w3.org/2000/svg">
<rect width="28" height="28" rx="14" fill="#181D2B"/>
<g clip-path="url(#clip0_614_23978)">
<path d="M14.0029 19.2469L10.7579 19.1919L10.1089 19.1809C9.55159 19.1809 9.13726 19.1735 8.86592 19.1589C8.40392 19.1295 7.98959 19.0782 7.62292 19.0049C7.14626 18.9095 6.77226 18.6969 6.50092 18.3669C6.28092 18.0882 6.11959 17.7179 6.01692 17.2559C5.95092 16.9772 5.89226 16.5519 5.84092 15.9799V15.9249C5.67226 14.1282 5.73826 12.3389 6.03892 10.5569C6.12692 10.0582 6.33226 9.66771 6.65492 9.38538C6.97759 9.10304 7.39926 8.94721 7.91992 8.91787C9.54059 8.80787 11.2933 8.74554 13.1779 8.73088C14.7033 8.73088 16.4523 8.76021 18.4249 8.81887C18.6743 8.82621 19.0409 8.86654 19.5249 8.93987C20.0603 9.02787 20.4746 9.25154 20.7679 9.61088C21.0173 9.89687 21.1969 10.2929 21.3069 10.7989C21.3656 11.0995 21.4206 11.5689 21.4719 12.2069L21.4829 12.3939C21.6003 13.8459 21.5489 15.3015 21.3289 16.7609C21.2629 17.2229 21.1749 17.5932 21.0649 17.8719C20.9256 18.2239 20.7313 18.4952 20.4819 18.6859C20.1959 18.9059 19.8256 19.0305 19.3709 19.0599C18.3443 19.1332 17.4533 19.1882 16.6979 19.2249C15.7373 19.2615 14.8426 19.2725 14.0139 19.2579C14.0139 19.2505 14.0139 19.2469 14.0139 19.2469H14.0029ZM12.0889 16.2219C13.3576 15.5252 14.7033 14.7809 16.1259 13.9889L14.7289 13.2189C13.5629 12.5662 12.6829 12.0785 12.0889 11.7559V16.2219Z" fill="white"/>
</g>
<defs>
<clipPath id="clip0_614_23978">
<rect width="16.5" height="11" fill="white" transform="matrix(1 0 0 -1 5.75 19.5)"/>
</clipPath>
</defs>
</svg>
