<svg width="116" height="46" viewBox="0 0 116 46" fill="none" xmlns="http://www.w3.org/2000/svg">
<g clip-path="url(#clip0_555_19662)">
<path d="M12.1017 12.6332L1.96094 22.9842L12.1017 33.3352" stroke="url(#paint0_linear_555_19662)" stroke-width="2.24415" stroke-linecap="round" stroke-linejoin="round"/>
<path d="M21.3362 12.6332L31.4768 22.9842L21.3362 33.3352" stroke="url(#paint1_linear_555_19662)" stroke-width="2.24415" stroke-linecap="round" stroke-linejoin="round"/>
<path d="M52.1975 31.6788C58.1953 31.6788 61.6194 28.1169 61.6194 21.9123C61.6194 15.6617 58.1494 12.1458 51.9907 12.1458H45.97V31.6788H52.1975ZM51.9907 15.0182C56.311 15.0182 58.7239 17.5001 58.7239 21.9123C58.7239 26.2555 56.311 28.8063 52.1975 28.8063H48.8425V15.0182H51.9907ZM73.279 27.4505C72.7504 28.4156 71.6015 29.0821 70.1766 29.0821C68.2234 29.0821 66.7527 27.7722 66.385 25.7729H76.749C76.8179 25.4282 76.8409 25.0375 76.8409 24.6699C76.8409 20.7173 73.9224 17.7069 70.1307 17.7069C66.316 17.7069 63.4205 20.7403 63.4205 24.7389C63.4205 28.8752 66.2241 31.7937 70.1996 31.7937C72.9572 31.7937 75.3931 30.0243 76.3353 27.4505H73.279ZM66.385 23.6817C66.7757 21.7285 68.2234 20.4186 70.1307 20.4186C72.0381 20.4186 73.5088 21.7515 73.8765 23.6817H66.385ZM86.1216 31.6788L91.4758 17.8908H88.4196L84.6048 27.7262L80.7902 17.8908H77.7338L83.0652 31.6788H86.1216ZM114.796 31.6788L107.994 21.9123L114.796 12.1458H111.326L106.271 19.4075L101.215 12.1458H97.7449L104.524 21.9123L97.7449 31.6788H101.215L106.271 24.4171L111.326 31.6788H114.796Z" fill="white"/>
</g>
<defs>
<linearGradient id="paint0_linear_555_19662" x1="1.05792" y1="24.4391" x2="12.7955" y2="24.3905" gradientUnits="userSpaceOnUse">
<stop stop-color="#1E6AFF"/>
<stop offset="1" stop-color="#3A36FF"/>
</linearGradient>
<linearGradient id="paint1_linear_555_19662" x1="20.4332" y1="24.4391" x2="32.1708" y2="24.3905" gradientUnits="userSpaceOnUse">
<stop stop-color="#1E6AFF"/>
<stop offset="1" stop-color="#3A36FF"/>
</linearGradient>
<clipPath id="clip0_555_19662">
<rect width="115.986" height="44.61" fill="white" transform="translate(0.00708008 1)"/>
</clipPath>
</defs>
</svg>
