<svg width="28" height="28" viewBox="0 0 28 28" fill="none" xmlns="http://www.w3.org/2000/svg">
<rect width="28" height="28" rx="14" fill="#181D2B"/>
<g clip-path="url(#clip0_614_23960)">
<path d="M15.7494 8.65383H16.3434L16.5634 8.69783C16.6734 8.71249 16.8054 8.74916 16.9594 8.80783C17.04 8.83716 17.1537 8.88849 17.3004 8.96183L17.6084 9.14883C17.6964 9.21483 17.7752 9.28266 17.8449 9.35233C17.9145 9.422 18.0264 9.44216 18.1804 9.41283C18.261 9.39816 18.3894 9.3615 18.5654 9.30283L18.6644 9.26983L18.7744 9.22583C18.9504 9.15249 19.0824 9.0975 19.1704 9.06083C19.317 8.99483 19.4197 8.94349 19.4784 8.90683C19.493 8.8995 19.5114 8.89216 19.5334 8.88483L19.5884 8.85183V8.84083H19.6104L19.6214 8.82983V8.86283L19.5884 8.92883L19.5774 8.98383C19.5774 8.99116 19.559 9.03516 19.5224 9.11583L19.4674 9.21483C19.4087 9.33949 19.3207 9.47883 19.2034 9.63283C19.086 9.78683 18.9944 9.88949 18.9284 9.94083L18.7634 10.0948C18.7487 10.1242 18.7157 10.1498 18.6644 10.1718L18.6094 10.2158L18.5874 10.2268H18.5764V10.2378L18.5544 10.2488H18.5434V10.2598H18.5324V10.2708H18.5874L18.9064 10.2048C19.141 10.1462 19.3464 10.0875 19.5224 10.0288L19.8854 9.90783L19.9294 9.88583H19.9734V9.90783H19.9624V9.91883H19.9514V9.92983H19.9404V9.94083L19.9294 9.96283H19.9184C19.9184 9.97016 19.889 10.0105 19.8304 10.0838L19.6984 10.2598C19.6544 10.3258 19.6287 10.3588 19.6214 10.3588C19.614 10.3588 19.603 10.3717 19.5884 10.3973C19.5737 10.423 19.493 10.5092 19.3464 10.6558C19.1557 10.8318 19.009 10.9638 18.9064 11.0518C18.7597 11.1765 18.6864 11.3195 18.6864 11.4808C18.6864 11.5835 18.679 11.7485 18.6644 11.9758V12.0968C18.635 12.3828 18.6057 12.6028 18.5764 12.7568C18.5324 13.0062 18.4664 13.2922 18.3784 13.6148C18.2977 13.9082 18.1914 14.2125 18.0594 14.5278C17.942 14.7992 17.81 15.0705 17.6634 15.3418C17.502 15.6132 17.3737 15.8185 17.2784 15.9578C17.183 16.0972 17.0657 16.2475 16.9264 16.4088C16.8237 16.5555 16.6734 16.7205 16.4754 16.9038L16.1784 17.2118L15.9584 17.3988C15.8264 17.5088 15.6815 17.6188 15.5239 17.7288C15.3662 17.8388 15.2287 17.9305 15.1114 18.0038L15.0454 18.0368C14.884 18.1248 14.752 18.1945 14.6494 18.2458C14.466 18.3485 14.2754 18.4365 14.0774 18.5098C13.872 18.5978 13.6539 18.6748 13.4229 18.7408C13.1919 18.8068 12.97 18.8618 12.7574 18.9058C12.4787 18.9498 12.233 18.9792 12.0204 18.9938L11.6134 19.0378V19.0488H10.8654V19.0378H10.7664C10.7224 19.0305 10.671 19.0268 10.6124 19.0268C10.5684 19.0195 10.407 18.9975 10.1284 18.9608L10.0514 18.9498C9.76537 18.9058 9.5747 18.8692 9.47937 18.8398C9.36203 18.8178 9.12737 18.7445 8.77537 18.6198C8.48937 18.5245 8.22537 18.4182 7.98337 18.3008L7.56537 18.0918L7.37837 17.9818L7.27937 17.9158H7.26837V17.9048L7.24637 17.8938H7.23537V17.8828H7.22437V17.8608L7.34537 17.8718C7.42603 17.8792 7.50303 17.8828 7.57637 17.8828C7.73037 17.8902 7.89537 17.8902 8.07137 17.8828C8.21803 17.8828 8.39403 17.8645 8.59937 17.8278C8.76803 17.8058 8.98253 17.76 9.24287 17.6903C9.5032 17.6207 9.72503 17.5455 9.90837 17.4648L10.3484 17.2558C10.4584 17.2045 10.5904 17.1238 10.7444 17.0138L11.0084 16.8378V16.8268H11.0194V16.8158H11.0304L11.0414 16.8048H11.0524V16.7828H11.0634V16.7718L10.7884 16.7608C10.7444 16.7608 10.66 16.7425 10.5354 16.7058C10.4107 16.6692 10.2787 16.6233 10.1394 16.5683C10 16.5133 9.85703 16.4418 9.71037 16.3538C9.55637 16.2512 9.46103 16.1778 9.42437 16.1338C9.35837 16.0752 9.2832 16 9.19887 15.9083C9.11453 15.8167 9.03203 15.7085 8.95137 15.5838C8.88537 15.4958 8.81937 15.3748 8.75337 15.2208L8.65437 15.0008L8.64337 14.9568L8.63237 14.9458H8.65437L8.66537 14.9568L8.79737 14.9678C8.92203 14.9825 9.05403 14.9862 9.19337 14.9788C9.3547 14.9788 9.47937 14.9715 9.56737 14.9568L9.63337 14.9458C9.67003 14.9458 9.69203 14.9422 9.69937 14.9348L9.77637 14.9238V14.9128H9.78737L9.58937 14.8578C9.5307 14.8358 9.4262 14.7918 9.27587 14.7258C9.12553 14.6598 8.9917 14.5902 8.87437 14.5168C8.80837 14.4728 8.71303 14.3958 8.58837 14.2858C8.51503 14.2198 8.41603 14.1135 8.29137 13.9668C8.1887 13.8275 8.09337 13.6772 8.00537 13.5158C7.91737 13.3178 7.85503 13.1528 7.81837 13.0208C7.7817 12.8742 7.75603 12.7128 7.74137 12.5368L7.71937 12.2948H7.73037L7.74137 12.3058L7.96137 12.4048C8.07137 12.4562 8.21803 12.5038 8.40137 12.5478L8.47837 12.5588C8.6177 12.5882 8.69837 12.6028 8.72037 12.6028L8.77537 12.6138H8.87437V12.6028H8.86337V12.5918H8.85237L8.83037 12.5808V12.5698H8.81937L8.79737 12.5588V12.5478L8.69837 12.4818C8.63237 12.4232 8.56637 12.3572 8.50037 12.2838L8.43437 12.2068C8.36837 12.1335 8.3207 12.0785 8.29137 12.0418C8.24003 11.9758 8.18137 11.8897 8.11537 11.7833C8.04937 11.677 7.98703 11.5523 7.92837 11.4093C7.8697 11.2663 7.82937 11.1178 7.80737 10.9638C7.7707 10.7952 7.75237 10.6448 7.75237 10.5128C7.74503 10.4102 7.7487 10.2855 7.76337 10.1388C7.77803 10.0362 7.80003 9.91883 7.82937 9.78683C7.8587 9.67683 7.91003 9.54116 7.98337 9.37983L8.08237 9.15983L8.09337 9.11583L8.10437 9.10483V9.11583L8.13737 9.15983L8.29137 9.33583L8.66537 9.72083C8.81203 9.86749 8.88903 9.94083 8.89637 9.94083C8.9257 9.95549 8.9477 9.97383 8.96237 9.99583C8.97703 10.0178 9.05403 10.0857 9.19337 10.1993C9.3327 10.313 9.50137 10.4395 9.69937 10.5788C9.8167 10.6595 10.0147 10.7805 10.2934 10.9418L10.4034 10.9968C10.638 11.1288 10.913 11.2535 11.2284 11.3708C11.5657 11.4955 11.7784 11.5707 11.8664 11.5963C11.9544 11.622 12.1524 11.6642 12.4604 11.7228C12.7464 11.7742 12.9627 11.809 13.1094 11.8273C13.256 11.8457 13.355 11.8548 13.4064 11.8548H13.4944L13.4834 11.8438L13.4614 11.6788C13.4467 11.5468 13.4394 11.4112 13.4394 11.2718C13.4394 11.0812 13.4504 10.9235 13.4724 10.7988C13.4944 10.6742 13.5384 10.5238 13.6044 10.3478C13.641 10.2232 13.6924 10.1022 13.7584 9.98483C13.817 9.88949 13.8867 9.78683 13.9674 9.67683C14.048 9.56683 14.1544 9.4495 14.2864 9.32483C14.4477 9.18549 14.6035 9.07366 14.7539 8.98933C14.9042 8.90499 15.0637 8.8335 15.2324 8.77483C15.379 8.73083 15.5 8.69783 15.5954 8.67583L15.7494 8.65383Z" fill="white"/>
</g>
<defs>
<clipPath id="clip0_614_23960">
<rect width="13.55" height="11" fill="white" transform="matrix(1 0 0 -1 7.21997 19.5)"/>
</clipPath>
</defs>
</svg>
